<svg height="24" viewBox="0 0 24 24" width="24" xmlns="http://www.w3.org/2000/svg"><path d="m0 0h24v24h-24z" fill="none"/><path d="m7 5h10v1c0 .55.45 1 1 1s1-.45 1-1v-3c0-1.1-.9-1.99-2-1.99l-10-.01c-1.1 0-2 .9-2 2v3c0 .55.45 1 1 1s1-.45 1-1zm9.12 10.88 3.17-3.17c.39-.39.39-1.02 0-1.41l-3.17-3.17c-.39-.39-1.03-.39-1.42 0s-.39 1.02 0 1.41l2.47 2.46-2.47 2.47c-.39.39-.39 1.02 0 1.41s1.03.39 1.42 0zm-6.83-1.42-2.46-2.46 2.46-2.46c.39-.39.39-1.02 0-1.41s-1.03-.39-1.42 0l-3.17 3.17c-.39.39-.39 1.02 0 1.41l3.17 3.17c.39.39 1.03.39 1.42 0 .4-.39.39-1.03 0-1.42zm7.71 4.54h-10v-1c0-.55-.45-1-1-1s-1 .45-1 1v3c0 1.1.9 2 2 2h10c1.1 0 2-.9 2-2v-3c0-.55-.45-1-1-1s-1 .45-1 1z"/></svg>